<?xml version="1.0" encoding="UTF-8"?>
<svg version="1.1" xmlns="http://www.w3.org/2000/svg" width="897" height="897">
<path d="M0 0 C3.82279092 0.01611344 7.64452522 0.0000049 11.46728516 -0.01904297 C102.48277578 -0.09750209 195.43946074 30.82931094 268.32275391 85.39111328 C268.99113281 85.8896582 269.65951172 86.38820313 270.34814453 86.90185547 C283.563985 96.79269149 296.14728355 107.24094569 308.32275391 118.39111328 C308.83338379 118.85662598 309.34401367 119.32213867 309.87011719 119.80175781 C318.77975519 127.92813093 327.60466022 136.07751192 335.45947266 145.25048828 C337.61162168 147.72297814 339.8425611 150.11382685 342.07275391 152.51611328 C347.85369875 158.87080603 353.11042559 165.56694046 358.32275391 172.39111328 C358.90750488 173.15133789 359.49225586 173.9115625 360.09472656 174.69482422 C368.72644638 185.93519157 376.86645468 197.33796938 384.32275391 209.39111328 C384.8815625 210.2834668 384.8815625 210.2834668 385.45166016 211.19384766 C429.04411898 280.95740631 453.12402533 362.75277623 452.71386719 445.06835938 C452.69775375 448.89115029 452.71386229 452.7128846 452.73291016 456.53564453 C452.81136928 547.55113516 421.88455625 640.50782012 367.32275391 713.39111328 C366.82420898 714.05949219 366.32566406 714.72787109 365.81201172 715.41650391 C355.9211757 728.63234437 345.4729215 741.21564292 334.32275391 753.39111328 C333.85724121 753.90174316 333.39172852 754.41237305 332.91210938 754.93847656 C324.78573626 763.84811456 316.63635527 772.6730196 307.46337891 780.52783203 C304.99088904 782.67998105 302.60004033 784.91092047 300.19775391 787.14111328 C293.84306116 792.92205812 287.14692673 798.17878496 280.32275391 803.39111328 C279.5625293 803.97586426 278.80230469 804.56061523 278.01904297 805.16308594 C266.77867562 813.79480576 255.3758978 821.93481405 243.32275391 829.39111328 C242.72785156 829.76365234 242.13294922 830.13619141 241.52001953 830.52001953 C171.75646088 874.11247835 89.96109095 898.1923847 7.64550781 897.78222656 C3.82271689 897.76611313 0.00098259 897.78222167 -3.82177734 897.80126953 C-94.83726797 897.87972866 -187.79395293 866.95291562 -260.67724609 812.39111328 C-261.345625 811.89256836 -262.01400391 811.39402344 -262.70263672 810.88037109 C-275.91847718 800.98953508 -288.50177573 790.54128088 -300.67724609 779.39111328 C-301.18787598 778.92560059 -301.69850586 778.46008789 -302.22460938 777.98046875 C-311.13424737 769.85409563 -319.95915241 761.70471464 -327.81396484 752.53173828 C-329.96611387 750.05924842 -332.19705329 747.66839971 -334.42724609 745.26611328 C-340.20819093 738.91142053 -345.46491777 732.2152861 -350.67724609 725.39111328 C-351.26199707 724.63088867 -351.84674805 723.87066406 -352.44921875 723.08740234 C-361.08093857 711.847035 -369.22094687 700.44425718 -376.67724609 688.39111328 C-377.04978516 687.79621094 -377.42232422 687.20130859 -377.80615234 686.58837891 C-421.39861117 616.82482025 -445.47851751 535.02945033 -445.06835938 452.71386719 C-445.05224594 448.89107627 -445.06835448 445.06934197 -445.08740234 441.24658203 C-445.16586147 350.2310914 -414.23904843 257.27440644 -359.67724609 184.39111328 C-359.17870117 183.72273437 -358.68015625 183.05435547 -358.16650391 182.36572266 C-348.27566789 169.14988219 -337.82741369 156.56658364 -326.67724609 144.39111328 C-326.2117334 143.8804834 -325.7462207 143.36985352 -325.26660156 142.84375 C-317.14022844 133.934112 -308.99084745 125.10920696 -299.81787109 117.25439453 C-297.34538123 115.10224551 -294.95453252 112.87130609 -292.55224609 110.64111328 C-286.19755335 104.86016844 -279.50141891 99.6034416 -272.67724609 94.39111328 C-271.91702148 93.8063623 -271.15679687 93.22161133 -270.37353516 92.61914062 C-259.13316781 83.98742081 -247.73038999 75.84741251 -235.67724609 68.39111328 C-234.78489258 67.83230469 -234.78489258 67.83230469 -233.87451172 67.26220703 C-164.11095307 23.66974821 -82.31558314 -0.41015814 0 0 Z " fill="#1753A9" transform="translate(444.67724609375,-0.39111328125)"/>
<path d="M0 0 C1.57465114 1.34001769 3.13725011 2.69432644 4.6875 4.0625 C5.51765625 4.76117188 6.3478125 5.45984375 7.203125 6.1796875 C28.77450367 24.77342187 40.92615451 50.93171272 43.6875 79.0625 C45.11497591 106.23944512 38.00437472 134.31135653 19.6875 155.0625 C19.02363281 155.8565625 18.35976563 156.650625 17.67578125 157.46875 C0.08170442 177.93726308 -22.93488789 189.10728092 -49.3125 193.0625 C-50.46105469 193.24683594 -51.60960937 193.43117188 -52.79296875 193.62109375 C-80.44317325 197.08887744 -109.02259286 189.01001464 -131.125 172.1875 C-153.76046832 154.27841847 -168.70543844 128.80363746 -172.3125 100.0625 C-174.5645784 69.68678474 -167.49788697 41.19873496 -147.546875 17.75 C-110.70293358 -24.11811525 -45.70822618 -35.66090711 0 0 Z " fill="#FEC427" transform="translate(798.3125,460.9375)"/>
<path d="M0 0 C12.86939636 12.17375332 18.22503019 30.39691052 18.97119141 47.67456055 C19.0077609 51.3892899 18.9882502 55.09797559 18.9375 58.8125 C18.92847656 60.08931641 18.91945313 61.36613281 18.91015625 62.68164062 C18.88688789 65.78796716 18.85420155 68.89387572 18.8125 72 C25.2358039 71.93280279 31.65850856 71.84291935 38.08129883 71.73754883 C40.2644945 71.70437448 42.44777439 71.6763194 44.63110352 71.65356445 C47.77656817 71.61988096 50.92126624 71.56755724 54.06640625 71.51171875 C55.52150352 71.50213387 55.52150352 71.50213387 57.0059967 71.49235535 C62.63907402 71.37121357 66.9884706 71.04796806 71.8125 68 C76.14995875 61.66414258 75.29057704 53.9514934 75.32421875 46.53515625 C75.34108477 45.13266954 75.35923757 43.73019777 75.37861633 42.32774353 C75.4259144 38.65685699 75.4558536 34.98603104 75.48205566 31.31494141 C75.51196385 27.56075155 75.55829979 23.80676593 75.60351562 20.05273438 C75.69085739 12.70180781 75.75097339 5.35136914 75.8125 -2 C87.3625 -2 98.9125 -2 110.8125 -2 C110.84988281 2.39441406 110.88726562 6.78882813 110.92578125 11.31640625 C110.96392145 14.83327899 111.004994 18.35009045 111.0480423 21.86690521 C111.09259599 25.5721376 111.13205281 29.2772597 111.15893555 32.98266602 C111.18505719 36.55552792 111.2255207 40.12797253 111.27568626 43.70057487 C111.29229545 45.05957767 111.30384664 46.41865255 111.31011391 47.77774239 C111.2777895 57.81728034 111.2777895 57.81728034 114.8125 67 C118.28655789 70.25692927 121.50723693 71.12222796 126.1887207 71.14526367 C127.0700618 71.15164352 127.95140289 71.15802338 128.85945129 71.16459656 C129.80946518 71.16570938 130.75947906 71.1668222 131.73828125 71.16796875 C133.20880196 71.17296135 133.20880196 71.17296135 134.70903015 71.17805481 C136.78444957 71.18311925 138.85987714 71.18546328 140.93530273 71.18530273 C144.10218845 71.18748429 147.26872303 71.2056316 150.43554688 71.22460938 C152.45312381 71.22754442 154.4707024 71.22952847 156.48828125 71.23046875 C157.90419304 71.24124702 157.90419304 71.24124702 159.34870911 71.25224304 C166.38207331 71.37308602 166.38207331 71.37308602 172.8125 69 C177.05362754 62.15036011 176.28649029 53.29167957 176.32421875 45.55859375 C176.34109612 44.18138562 176.35925039 42.8041926 176.37861633 41.42701721 C176.42579146 37.83178433 176.45580939 34.23661275 176.48205566 30.64117432 C176.51202684 26.96053039 176.55834223 23.28009294 176.60351562 19.59960938 C176.69070093 12.39972534 176.75092242 5.20033023 176.8125 -2 C188.3625 -2 199.9125 -2 211.8125 -2 C211.84988281 2.310625 211.88726562 6.62125 211.92578125 11.0625 C211.9639326 14.51649431 212.00500503 17.97042663 212.0480423 21.42436218 C212.09256016 25.06104397 212.13202401 28.69761435 212.15893555 32.33447266 C212.18509403 35.84250351 212.22558266 39.35011198 212.27568626 42.85787964 C212.30029887 44.83622646 212.31036723 46.81473713 212.32014465 48.79321289 C212.41756555 58.3107747 212.41756555 58.3107747 215.8125 67 C222.03337683 72.91059166 231.73106483 71.56146319 239.6953125 71.49609375 C241.23892281 71.49624896 242.78253351 71.49774152 244.32614136 71.50050354 C247.54882195 71.50188254 250.77105476 71.48941121 253.99365234 71.46655273 C258.11386631 71.4381213 262.2333399 71.44092489 266.35360909 71.45364285 C269.53647128 71.46061244 272.71916373 71.452797 275.90200424 71.44038582 C277.42097192 71.43588711 278.9399579 71.43552064 280.45892715 71.43945122 C282.58383542 71.44237742 284.70773867 71.42579309 286.83251953 71.40405273 C288.64165329 71.39594826 288.64165329 71.39594826 290.48733521 71.38768005 C294.24846875 70.94917052 296.63063849 70.04106096 299.8125 68 C302.27961511 64.75840754 302.08581763 61.46359364 302.13134766 57.48730469 C302.14139328 56.84298492 302.1514389 56.19866516 302.16178894 55.53482056 C302.19257823 53.41384744 302.20964378 51.2930003 302.2265625 49.171875 C302.24527762 47.69784464 302.2648513 46.22382495 302.2852478 44.74981689 C302.33653885 40.87669166 302.37618062 37.00353171 302.41339111 33.13024902 C302.46049717 28.47951008 302.52208199 23.82894301 302.58123779 19.17834473 C302.66941323 12.11896598 302.7392034 5.05961956 302.8125 -2 C314.0325 -2 325.2525 -2 336.8125 -2 C336.97293524 17.27451115 336.97293524 17.27451115 337.0078125 25.54492188 C337.03164447 31.16934466 337.05971575 36.79350484 337.11425781 42.41772461 C337.15799381 46.95650278 337.18169522 51.49499901 337.19200897 56.03397179 C337.19935087 57.7581901 337.21368683 59.4823945 337.23542023 61.20649147 C337.38226272 73.34776886 336.76525029 84.31768277 328.6875 94.15234375 C316.34168009 106.31812046 300.46907481 106.47075843 284.2109375 106.43359375 C282.4398275 106.43816725 280.66871926 106.44347625 278.89761353 106.44947815 C275.20803559 106.45835357 271.51867479 106.45604831 267.82910156 106.44604492 C263.12766967 106.43453254 258.4269864 106.45482985 253.72565269 106.48396206 C250.07595151 106.50239913 246.42642755 106.50201722 242.77669144 106.49632454 C241.04413423 106.4961724 239.31156417 106.50212663 237.57905197 106.51461601 C226.65507805 106.58232388 216.78708185 106.46614782 207.65625 99.640625 C206.8828125 98.85171875 206.109375 98.0628125 205.3125 97.25 C203.85830062 95.78635776 202.36667973 94.35700767 200.8125 93 C197.83772 92.66525797 197.83772 92.66525797 196.26953125 94.390625 C195.72683594 95.00421875 195.18414062 95.6178125 194.625 96.25 C187.36599407 103.78293068 178.22920174 105.99565602 167.99243164 106.2746582 C165.81924559 106.29442118 163.64593142 106.30257644 161.47265625 106.30078125 C160.31052109 106.30506638 159.14838593 106.3093515 157.95103455 106.31376648 C155.50455372 106.31948421 153.0580559 106.32002901 150.61157227 106.31567383 C146.88983913 106.3125126 143.16890081 106.33601088 139.44726562 106.36132812 C137.05989683 106.3636014 134.67252591 106.36430448 132.28515625 106.36328125 C131.18381851 106.372491 130.08248077 106.38170074 128.94776917 106.39118958 C120.20617639 106.33939778 111.75655463 105.34355477 104.875 99.5 C104.16472656 98.9121875 103.45445312 98.324375 102.72265625 97.71875 C101.02795853 96.19386861 99.40160833 94.6339421 97.8125 93 C96.88630859 93.79664063 96.88630859 93.79664063 95.94140625 94.609375 C87.24040465 101.86683143 79.50228718 106.13900175 68.01245117 106.11352539 C66.30124336 106.11341209 66.30124336 106.11341209 64.5554657 106.11329651 C63.33446671 106.10813522 62.11346771 106.10297394 60.85546875 106.09765625 C59.59736893 106.0962413 58.3392691 106.09482635 57.04304504 106.09336853 C53.71071471 106.08872573 50.37845368 106.07975228 47.04614258 106.06866455 C43.64079383 106.05840503 40.2354379 106.05386121 36.83007812 106.04882812 C30.15753302 106.0378083 23.48502051 106.021077 16.8125 106 C16.66699707 107.09022461 16.52149414 108.18044922 16.37158203 109.30371094 C14.40343745 122.31581089 7.0936059 135.68676203 -3.1875 144 C-14.89491124 152.45128749 -27.11922474 157.14409149 -41.1875 160 C-42.07759766 160.18167725 -42.96769531 160.36335449 -43.88476562 160.55053711 C-51.57505837 161.98452511 -59.00286009 162.27123767 -66.8125 162.1875 C-68.53726563 162.1865332 -68.53726563 162.1865332 -70.296875 162.18554688 C-77.05469267 162.15091114 -83.40232002 161.678518 -90.1875 161 C-90.1875 150.44 -90.1875 139.88 -90.1875 129 C-85.2375 128.896875 -80.2875 128.79375 -75.1875 128.6875 C-56.71537981 128.1667533 -36.41596367 127.57704003 -22.1875 114 C-19.85760459 111.20140843 -18.34650035 108.47700106 -17.1875 105 C-18.38246094 105.15855469 -19.57742187 105.31710937 -20.80859375 105.48046875 C-42.27147103 107.8410079 -66.41750902 108.4387332 -84.203125 94.41015625 C-95.91372364 83.59058142 -100.11936955 68.08459797 -101.375 52.703125 C-101.92987268 34.25360851 -96.02200013 15.7027171 -83.4140625 2.01171875 C-60.1940642 -18.96775339 -24.12732263 -19.70398015 0 0 Z " fill="#FDFDFE" transform="translate(167.1875,310)"/>
<path d="M0 0 C0 12.21 0 24.42 0 37 C-5.589375 39.0625 -11.17875 41.125 -16.9375 43.25 C-42.16979157 52.38305814 -42.16979157 52.38305814 -65.53515625 65.3359375 C-68 67 -68 67 -70 67 C-70 67.66 -70 68.32 -70 69 C-69.15953125 69.23460937 -68.3190625 69.46921875 -67.453125 69.7109375 C-63.44378037 71.20763855 -60.26231944 73.2177409 -56.75 75.625 C-55.76483398 76.29160645 -55.76483398 76.29160645 -54.75976562 76.97167969 C-49.28335977 80.71827077 -44.08445556 84.73652075 -39 89 C-38.39027344 89.47566406 -37.78054688 89.95132813 -37.15234375 90.44140625 C-22.47321387 102.17802262 -10.91443626 121.42443122 -8 140 C-6.75556333 153.59705359 -6.84051761 166.33064979 -14.984375 177.79296875 C-25.32425657 190.20449326 -39.46174614 194.73329751 -55 197 C-58.48810971 197.25806189 -61.95667023 197.29405461 -65.45336914 197.29052734 C-66.4337767 197.29724457 -67.41418427 197.30396179 -68.42430115 197.31088257 C-71.62797265 197.32970242 -74.83143311 197.33377783 -78.03515625 197.3359375 C-80.28234439 197.3423738 -82.52953171 197.34910277 -84.77671814 197.35610962 C-89.47103824 197.3680403 -94.16528496 197.37179451 -98.85961914 197.37060547 C-104.85699876 197.37040189 -110.85390663 197.39776381 -116.85117435 197.43214989 C-121.48646689 197.4544419 -126.12164598 197.45844238 -130.75698662 197.45738602 C-132.96765209 197.45973619 -135.17832097 197.46852655 -137.38893318 197.48405075 C-140.48496344 197.50376829 -143.57997682 197.49785096 -146.67602539 197.48583984 C-147.57656647 197.49707886 -148.47710754 197.50831787 -149.40493774 197.51989746 C-158.10879897 197.43460715 -165.30640308 194.35026092 -172.625 189.75 C-173.46289062 189.22921875 -174.30078125 188.7084375 -175.1640625 188.171875 C-175.76992188 187.78515625 -176.37578125 187.3984375 -177 187 C-176.93619141 188.48306641 -176.93619141 188.48306641 -176.87109375 189.99609375 C-176.87858391 194.25799311 -177.83086538 198.00377867 -179.0625 202.0625 C-179.28510498 202.80056885 -179.50770996 203.5386377 -179.73706055 204.29907227 C-185.4191707 222.32180353 -195.79804257 237.82909019 -212.75 246.8125 C-227.23748442 253.7437218 -242.14587312 254.10318648 -258 253 C-258.66 252.67 -259.32 252.34 -260 252 C-260.59078958 241.32358826 -261.15269003 230.69551573 -261 220 C-260.42145264 219.9906543 -259.84290527 219.98130859 -259.24682617 219.97167969 C-239.90893228 219.68901479 -239.90893228 219.68901479 -223 211 C-214.2693538 201.85360875 -211.71499524 191.28475236 -211.68115234 178.90014648 C-211.66608391 177.61070381 -211.66608391 177.61070381 -211.65071106 176.29521179 C-211.62011122 173.48717852 -211.60290913 170.67923954 -211.5859375 167.87109375 C-211.56720714 165.91096702 -211.54763236 163.95084819 -211.5272522 161.99073792 C-211.47612227 156.85672688 -211.43639456 151.72268976 -211.39910889 146.58856201 C-211.35894871 141.33957569 -211.3079114 136.09069608 -211.2578125 130.84179688 C-211.16128007 120.5612731 -211.07680328 110.28068879 -211 100 C-203.91451192 98.54897079 -196.85629066 97.33541215 -189.6875 96.375 C-188.72521484 96.2409375 -187.76292969 96.106875 -186.77148438 95.96875 C-185.84013672 95.84242188 -184.90878906 95.71609375 -183.94921875 95.5859375 C-183.11737061 95.4729834 -182.28552246 95.3600293 -181.4284668 95.24365234 C-178.93495143 94.99347356 -176.50426897 94.98375975 -174 95 C-173.99857498 95.62116699 -173.99714996 96.24233398 -173.99568176 96.88232422 C-173.97593133 103.37202604 -173.92154299 109.86079404 -173.84741211 116.35009766 C-173.82427502 118.76897472 -173.80984653 121.18795191 -173.80444336 123.60693359 C-173.79512298 127.09275403 -173.75406095 130.57700877 -173.70703125 134.0625 C-173.7109639 135.13677246 -173.71489655 136.21104492 -173.71894836 137.31787109 C-173.57158836 144.97318736 -171.89691046 149.99343699 -166.52229309 155.51928711 C-159.43507907 161.83096747 -151.50760758 162.15051799 -142.39941406 162.14526367 C-141.1347229 162.15030159 -141.1347229 162.15030159 -139.84448242 162.15544128 C-137.06818145 162.16490874 -134.29194109 162.16689241 -131.515625 162.16796875 C-129.57517472 162.17118469 -127.63472468 162.17454902 -125.6942749 162.17805481 C-121.62918537 162.18403588 -117.56411706 162.1858958 -113.49902344 162.18530273 C-108.30988119 162.18520127 -103.12087627 162.19884157 -97.93176651 162.21607494 C-93.92355738 162.22723726 -89.91538098 162.22922063 -85.9071579 162.22869301 C-83.99515053 162.22986721 -82.08314216 162.23425727 -80.17115021 162.24202538 C-62.92416797 162.74471328 -62.92416797 162.74471328 -47 157 C-43.637 151.95550001 -44.13302716 146.87012861 -45 141 C-51.02142661 122.01113383 -66.84520014 108.71715506 -83.94677734 99.69213867 C-92.36384451 95.44437912 -101.11299732 92.1199052 -110 89 C-110.55262044 73.73704845 -110.86547505 60.888108 -100 49 C-78.7506368 26.47885447 -43.16669099 14.62998709 -15 4 C-14.01402832 3.62053223 -13.02805664 3.24106445 -12.01220703 2.85009766 C-10.55403564 2.29974854 -10.55403564 2.29974854 -9.06640625 1.73828125 C-8.19056885 1.40481689 -7.31473145 1.07135254 -6.41235352 0.7277832 C-4 0 -4 0 0 0 Z " fill="#FDFDFE" transform="translate(777,219)"/>
<path d="M0 0 C4.29 0.33 8.58 0.66 13 1 C12.69127671 3.60466543 12.37818277 6.20867691 12.0625 8.8125 C11.97548828 9.55048828 11.88847656 10.28847656 11.79882812 11.04882812 C11.41783454 14.16733121 10.99630626 17.01108122 10 20 C12.97 20 15.94 20 19 20 C19.20496094 19.02417969 19.40992188 18.04835938 19.62109375 17.04296875 C19.89050781 15.77066406 20.15992188 14.49835938 20.4375 13.1875 C20.70433594 11.92292969 20.97117187 10.65835937 21.24609375 9.35546875 C22 6 22 6 23 3 C26.96 3.66 30.92 4.32 35 5 C34.855625 6.093125 34.71125 7.18625 34.5625 8.3125 C33.90689307 13.529258 33.45251777 18.76234747 33 24 C33.76183594 24.27972656 34.52367187 24.55945313 35.30859375 24.84765625 C43.65596787 28.0886467 53.209976 32.24930607 57.41015625 40.78515625 C59.08284992 47.06606558 59.48399171 55.09165245 56.4375 61 C52.80309485 65.47311403 48.7804702 68.81301987 44 72 C44.59167969 72.32871094 45.18335938 72.65742187 45.79296875 72.99609375 C51.82654239 76.62804917 55.82257649 80.16414639 58 87 C59.19549033 94.90944939 58.05167174 102.08338878 54 109 C49.00384611 115.74351341 42.11659173 119.2734744 34 121 C32.41307361 121.07866959 30.82321751 121.10784114 29.234375 121.09765625 C28.34492187 121.09443359 27.45546875 121.09121094 26.5390625 121.08789062 C25.61867188 121.07951172 24.69828125 121.07113281 23.75 121.0625 C22.81414062 121.05798828 21.87828125 121.05347656 20.9140625 121.04882812 C18.60934753 121.03706938 16.30466554 121.01913468 14 121 C13.01 126.94 12.02 132.88 11 139 C0.25 138.125 0.25 138.125 -2 137 C-1.22602467 130.29221378 -0.14231412 123.65425699 1 117 C-2.3 116.67 -5.6 116.34 -9 116 C-9.185625 117.918125 -9.185625 117.918125 -9.375 119.875 C-9.93652612 124.99383957 -10.9359114 129.96331395 -12 135 C-16.29 134.34 -20.58 133.68 -25 133 C-24.33644956 126.25390382 -23.28134207 119.65551466 -22 113 C-22.81082031 112.87882813 -23.62164063 112.75765625 -24.45703125 112.6328125 C-31.66287159 111.54228951 -38.83807475 110.34914023 -46 109 C-47.11346788 106.19966161 -47.03510273 105.09856297 -46.00390625 102.203125 C-44.66927083 99.46875 -43.33463542 96.734375 -42 94 C-37.38 94 -32.76 94 -28 94 C-24.81138918 79.58002802 -21.74732926 65.15904086 -19.125 50.625 C-18.91012939 49.4503418 -18.69525879 48.27568359 -18.47387695 47.06542969 C-18.27882568 45.96360352 -18.08377441 44.86177734 -17.8828125 43.7265625 C-17.71152832 42.76314941 -17.54024414 41.79973633 -17.36376953 40.80712891 C-16.97949033 37.84173141 -16.93762426 34.98685973 -17 32 C-23.88824069 29.59009896 -23.88824069 29.59009896 -31 28 C-31.38992742 21.76116128 -30.39301032 19.38136085 -28 13 C-19.75 14.32 -11.5 15.64 -3 17 C-2.01 11.39 -1.02 5.78 0 0 Z " fill="#BB890B" transform="translate(723,477)"/>
<path d="M0 0 C2.39591038 -0.02712351 4.79150957 -0.0468982 7.1875 -0.0625 C7.86103516 -0.07087891 8.53457031 -0.07925781 9.22851562 -0.08789062 C12.97138176 -0.10614851 16.35240985 0.20441241 20 1 C19.98667633 1.90748993 19.98667633 1.90748993 19.9730835 2.83331299 C19.88462407 9.12722328 19.82427158 15.42095713 19.78027344 21.71533203 C19.76015186 24.06468884 19.73285149 26.41399554 19.69824219 28.76318359 C19.6497496 32.13912315 19.62703643 35.51440086 19.609375 38.890625 C19.58872986 39.94179504 19.56808472 40.99296509 19.54681396 42.07598877 C19.46546069 47.62556111 19.46546069 47.62556111 21.64941406 52.56933594 C27.23734134 55.97038016 32.3445022 56.3081402 38.703125 56.30078125 C39.53978699 56.30506638 40.37644897 56.3093515 41.23846436 56.31376648 C43.01020407 56.31949484 44.7819673 56.32002107 46.55371094 56.31567383 C49.20030686 56.31255849 51.84573325 56.33583385 54.4921875 56.36132812 C75.59609003 56.4406907 93.57064585 52.74737887 112 42 C109.07424156 38.88548295 106.00150915 36.07551611 102.6875 33.375 C101.99011719 32.80523438 101.29273438 32.23546875 100.57421875 31.6484375 C93.36765339 27.03361112 87.096214 26.56917107 78.75 26.75 C77.23007446 26.76643555 77.23007446 26.76643555 75.67944336 26.78320312 C68.74044222 26.88564846 61.9004355 27.24378789 55 28 C54.505 19.09 54.505 19.09 54 10 C62.37635855 7.20788048 69.83440031 6.70074956 78.61083984 6.5949707 C80.59919288 6.56291604 82.58683217 6.49361272 84.57421875 6.42382812 C97.10491197 6.27958091 105.83882661 10.58309261 115.25 18.5625 C116.43548967 19.52461778 117.62297257 20.48428511 118.8125 21.44140625 C119.36421875 21.88758301 119.9159375 22.33375977 120.484375 22.79345703 C126.57151434 27.63924354 132.47131332 30.10240069 140 32 C140.12109311 39.07721931 139.85373239 45.97195301 139 53 C137.74123047 53.33257813 137.74123047 53.33257813 136.45703125 53.671875 C128.09184176 56.14646482 120.99404706 59.5255871 113.5 64 C93.99716691 75.59965526 76.32882962 76.25996953 54.10473633 76.35009766 C51.16496636 76.36343142 48.2258914 76.39129097 45.28637695 76.43212891 C41.71204125 76.48175623 38.13833459 76.50625337 34.5636692 76.51332474 C32.56188528 76.52319026 30.56026763 76.5573501 28.5587616 76.59213257 C19.97747132 76.57237666 12.78282057 75.42352867 6.28666687 69.41537476 C3 65.68353443 3 65.68353443 3 63 C2.26394531 63.34933594 1.52789062 63.69867187 0.76953125 64.05859375 C-0.20628906 64.51363281 -1.18210938 64.96867188 -2.1875 65.4375 C-3.15042969 65.88996094 -4.11335938 66.34242188 -5.10546875 66.80859375 C-13.04493759 70.07652627 -22.32874193 70.33136838 -30.375 67.3125 C-38.23297171 63.6596729 -42.18002447 59.44110865 -45.85546875 51.5859375 C-48.50067131 43.29823801 -48.63053896 33.566509 -45.125 25.5 C-39.29955152 15.89455545 -29.86855672 9.21713918 -19.03320312 6.50830078 C-12.76488919 5.10358381 -6.45189236 3.76334758 0 4 C0 2.68 0 1.36 0 0 Z " fill="#FCC527" transform="translate(114,539)"/>
<path d="M0 0 C6.6 0 13.2 0 20 0 C20.09064708 10.76224876 20.16391495 21.52424076 20.20724869 32.28678608 C20.2280548 37.28516728 20.25624395 42.28327201 20.30175781 47.28149414 C20.34546571 52.11204403 20.36918948 56.94232926 20.37950897 61.77306175 C20.38685581 63.60892078 20.40120167 65.4447666 20.42292023 67.28051186 C20.5513656 78.59519077 20.20429028 87.94279847 14.25 97.9375 C7.09214633 104.49886586 -1.03377015 105.1586223 -10.32421875 105.23828125 C-11.22566116 105.246353 -12.12710358 105.25442474 -13.05586243 105.26274109 C-14.96129455 105.27654253 -16.866751 105.28728222 -18.7722168 105.29516602 C-20.70686161 105.30666922 -22.6414751 105.32709467 -24.57592773 105.35668945 C-47.09461058 105.70082368 -47.09461058 105.70082368 -57 98 C-57.5671875 98.28746094 -58.134375 98.57492187 -58.71875 98.87109375 C-60.9612284 99.98081337 -63.21869335 101.03513074 -65.5 102.0625 C-66.2528125 102.40410156 -67.005625 102.74570312 -67.78125 103.09765625 C-71.47776611 104.60099291 -74.68975721 105.12447869 -78.67675781 105.11352539 C-79.59741028 105.11344986 -80.51806274 105.11337433 -81.46661377 105.11329651 C-82.45216248 105.10813522 -83.43771118 105.10297394 -84.453125 105.09765625 C-85.46848328 105.0962413 -86.48384155 105.09482635 -87.52996826 105.09336853 C-90.77000892 105.08777516 -94.00998025 105.07522385 -97.25 105.0625 C-99.44791567 105.05748414 -101.64583242 105.05292139 -103.84375 105.04882812 C-109.22919334 105.0378079 -114.61458492 105.02054778 -120 105 C-120 98.73 -120 92.46 -120 86 C-116.96554687 85.95101562 -113.93109375 85.90203125 -110.8046875 85.8515625 C-107.85574545 85.79750478 -104.90688257 85.74021609 -101.95800781 85.68261719 C-99.91347181 85.64440761 -97.86887043 85.6095409 -95.82421875 85.578125 C-92.87997114 85.53230013 -89.93617052 85.4743344 -86.9921875 85.4140625 C-85.6277803 85.39673569 -85.6277803 85.39673569 -84.23580933 85.37905884 C-79.48663148 85.26938845 -75.40731659 84.98695566 -71 83 C-69.1350781 79.2701562 -69.7696968 75.80910468 -71 72 C-77.24409264 62.14028038 -85.41055294 54.15514951 -94.19921875 46.578125 C-96.2242219 44.80350185 -98.13545857 42.94223065 -100 41 C-98.57646476 37.66863403 -96.8664687 35.72335243 -94.125 33.375 C-93.44695312 32.78460937 -92.76890625 32.19421875 -92.0703125 31.5859375 C-90.10745991 30.08231835 -88.21834418 29.068349 -86 28 C-81.30576556 32.36924233 -76.62604045 36.75343942 -71.96142578 41.15429688 C-70.38631872 42.6364738 -68.80204496 44.10890649 -67.21484375 45.578125 C-59.36908848 53.05027288 -51.02205759 62.73069161 -50.6875 74 C-50.37193306 77.92121145 -50.13062158 78.8358857 -47.5625 82.0625 C-43.25314825 85.32079035 -39.88076102 85.19032298 -34.6328125 85.23828125 C-33.80167938 85.246353 -32.97054626 85.25442474 -32.11422729 85.26274109 C-30.35400478 85.27658071 -28.59375545 85.28730342 -26.83349609 85.29516602 C-24.1423867 85.31238873 -21.45250281 85.35627537 -18.76171875 85.40039062 C-17.05209237 85.41051677 -15.34245555 85.41903312 -13.6328125 85.42578125 C-12.42638596 85.45204338 -12.42638596 85.45204338 -11.19558716 85.47883606 C-7.87215308 85.46594146 -5.56092807 85.38987393 -2.78970337 83.46372986 C-0.34492086 80.09820919 -0.4269722 77.1175945 -0.45410156 73.11035156 C-0.43859505 71.92441658 -0.43859505 71.92441658 -0.42277527 70.71452332 C-0.39332359 68.1063499 -0.39184764 65.49895171 -0.390625 62.890625 C-0.3756449 61.08028684 -0.35891812 59.26996236 -0.34051514 57.45965576 C-0.29681008 52.69870378 -0.27683557 47.93793615 -0.26177979 43.17681885 C-0.24222006 38.31698694 -0.20024878 33.45735447 -0.16015625 28.59765625 C-0.08481972 19.06513188 -0.03662072 9.53275181 0 0 Z " fill="#FCC527" transform="translate(493,510)"/>
<path d="M0 0 C6.6 0 13.2 0 20 0 C20.01458252 2.46831299 20.02916504 4.93662598 20.04418945 7.47973633 C20.09447979 15.62627804 20.16106481 23.77262748 20.23571491 31.9189806 C20.28048211 36.85913786 20.31972411 41.79921145 20.34643555 46.73950195 C20.37240534 51.50532224 20.4127625 56.27082159 20.46318626 61.03644371 C20.4798979 62.85650332 20.49138535 64.67661849 20.49761391 66.49674416 C20.5072085 69.04220009 20.5352109 71.58682694 20.56762695 74.13208008 C20.56547432 75.26604218 20.56547432 75.26604218 20.5632782 76.4229126 C20.62823775 80.44101299 20.62823775 80.44101299 22.37101746 83.96847534 C24.75285609 85.47673293 26.63622866 85.37188409 29.4375 85.36328125 C30.49710938 85.36263672 31.55671875 85.36199219 32.6484375 85.36132812 C33.75445313 85.34521484 34.86046875 85.32910156 36 85.3125 C37.65902344 85.31733398 37.65902344 85.31733398 39.3515625 85.32226562 C45.53231777 85.47934025 45.53231777 85.47934025 51 83 C51.33763588 80.02705026 51.48913038 77.25257498 51.51171875 74.2734375 C51.52966995 73.41062164 51.54762115 72.54780579 51.56611633 71.65884399 C51.6203852 68.89761269 51.65416757 66.13655582 51.6875 63.375 C51.7206585 61.50518397 51.75514678 59.635391 51.79101562 57.765625 C51.8786304 53.17705594 51.93855517 48.58929347 52 44 C58.93 44 65.86 44 73 44 C73.06924547 49.51399139 73.12886477 55.02644599 73.16479492 60.54052734 C73.17978865 62.41232443 73.2001905 64.28408694 73.22631836 66.15576172 C73.56064292 90.73844966 73.56064292 90.73844966 67 99 C58.51170018 106.07358318 47.68264784 105.34588803 37.23413086 105.31567383 C34.93881208 105.31250181 32.64477073 105.33607963 30.34960938 105.36132812 C14.4792648 105.4327817 14.4792648 105.4327817 7.79296875 100.30859375 C7.26316406 99.69113281 6.73335937 99.07367187 6.1875 98.4375 C5.37345703 97.53837891 5.37345703 97.53837891 4.54296875 96.62109375 C-1.28502924 86.72087437 -0.391021 75.73151463 -0.29296875 64.6484375 C-0.28736474 62.7794326 -0.28309845 60.91042326 -0.28010559 59.04141235 C-0.26872014 54.1521969 -0.23930802 49.26325415 -0.20599365 44.37414551 C-0.17515608 39.37316577 -0.16157115 34.37214142 -0.14648438 29.37109375 C-0.11443154 19.58059084 -0.06171592 9.7903609 0 0 Z " fill="#FCC527" transform="translate(532,510)"/>
<path d="M0 0 C6.6180296 3.88474848 9.47668064 9.68914074 11.54296875 16.9296875 C13.45071915 26.77426208 12.51294395 37.333305 12.22265625 47.3046875 C7.11813923 47.40427288 2.01419948 47.47649081 -3.09106445 47.52441406 C-4.8242377 47.5444116 -6.5573445 47.57161898 -8.2902832 47.60644531 C-28.59486239 48.00400114 -28.59486239 48.00400114 -35.33544922 41.8918457 C-40.92466148 35.71403498 -41.16525046 29.74157726 -41.0234375 21.75 C-40.53515464 14.91404002 -38.27291592 9.97492001 -33.66015625 4.91015625 C-24.06949612 -3.26777178 -11.42824171 -5.25228224 0 0 Z " fill="#1752A9" transform="translate(139.77734375,333.6953125)"/>
<path d="M0 0 C6.6 0 13.2 0 20 0 C20.09099275 7.46805509 20.16411015 14.93589835 20.20724869 22.40437603 C20.22797122 25.87371895 20.25600043 29.34265737 20.30175781 32.81176758 C20.35423186 36.81595352 20.37307151 40.8197262 20.390625 44.82421875 C20.41127014 46.04767502 20.43191528 47.27113129 20.45318604 48.53166199 C20.45656442 61.72926473 17.14672139 73.09933877 8.22265625 82.96484375 C0.12491273 90.79763043 -8.74817897 92.39470055 -19.60546875 92.29272461 C-22.64526684 92.20948849 -25.09830974 91.96723009 -28 91 C-28.33 84.73 -28.66 78.46 -29 72 C-26.855 72.061875 -24.71 72.12375 -22.5 72.1875 C-15.39698554 72.17315048 -10.17756358 71.83404319 -4.6875 66.9375 C0.01300655 58.75513675 0.4197623 50.46072247 0.29296875 41.2109375 C0.28872391 40.02650055 0.28447906 38.8420636 0.28010559 37.62173462 C0.26343533 33.87258287 0.22580413 30.12398679 0.1875 26.375 C0.17243814 23.81901823 0.15875237 21.26302796 0.14648438 18.70703125 C0.11356989 12.47114304 0.06186806 6.23566544 0 0 Z " fill="#FCC626" transform="translate(291,557)"/>
<path d="M0 0 C6.6 0 13.2 0 20 0 C20 34.65 20 69.3 20 105 C13.4 105 6.8 105 0 105 C0 70.35 0 35.7 0 0 Z " fill="#FEC328" transform="translate(336,510)"/>
<path d="M0 0 C4.95170091 2.84264311 8.55208681 6.46876044 10.375 11.9375 C10.90885142 17.90226294 10.92770149 22.89495595 7.375 27.9375 C2.6303378 32.80822811 -1.03147771 34.99247917 -7.875 35.3125 C-13.15263949 35.26024614 -16.61460899 33.24017495 -20.625 29.9375 C-25.20311792 24.91633841 -24.96749243 19.62424298 -24.90234375 13.109375 C-24.54126319 8.97983399 -23.51445013 6.90298829 -20.625 3.9375 C-13.92005697 -1.12541616 -8.03347757 -2.35463998 0 0 Z " fill="#FCFDFD" transform="translate(350.625,438.0625)"/>
<path d="M0 0 C4.59047821 2.63527453 7.99478431 6.17706863 10.375 10.9375 C11.09540926 17.95263281 10.90467258 24.26578533 6.375 29.9375 C2.36064153 33.81017523 -1.58041139 35.2702748 -7.125 35.5625 C-12.69246287 35.27679109 -16.52938547 33.71510211 -20.625 29.9375 C-24.82710803 24.78991766 -25.25464426 20.39468024 -25.0078125 13.8125 C-24.25412804 8.1521759 -22.13023897 5.10482818 -17.5625 1.5625 C-11.63711669 -1.71537162 -6.37741447 -1.86924217 0 0 Z " fill="#FBFCFD" transform="translate(242.625,244.0625)"/>
<path d="M0 0 C4.36037068 2.53325179 7.35129389 6.38591291 8.9296875 11.12109375 C9.46353892 17.08585669 9.48238899 22.0785497 5.9296875 27.12109375 C1.35228692 31.72013688 -2.17089138 34.23741518 -8.8203125 34.43359375 C-14.11001149 34.3719063 -16.82616763 33.26176096 -21.0703125 30.12109375 C-26.30357397 24.33696265 -26.48495048 20.30622393 -26.40625 12.6171875 C-26.02280149 8.62664773 -25.34236912 6.41547896 -22.6875 3.453125 C-15.67083842 -2.32629915 -8.47756891 -3.44710487 0 0 Z " fill="#FCFDFD" transform="translate(286.0703125,244.87890625)"/>
<path d="M0 0 C4.59047821 2.63527453 7.99478431 6.17706863 10.375 10.9375 C11.09839661 17.98172273 10.81330792 24.18262979 6.375 29.9375 C0.54534289 34.57743117 -4.37346877 35.59786281 -11.625 34.9375 C-17.06689799 33.123534 -20.4033325 29.55487362 -23.625 24.9375 C-25.3284608 19.8271176 -25.59727202 13.97654453 -23.94140625 8.80078125 C-19.01965307 -0.61385866 -9.54581081 -2.79791006 0 0 Z " fill="#FBFCFD" transform="translate(488.625,438.0625)"/>
<path d="M0 0 C4.05949084 2.27234447 6.60375757 5.14501515 8.6875 9.3125 C9.37467463 16.63485266 9.38284798 23.33529321 4.6875 29.3125 C-0.84731781 33.80953947 -5.25121758 34.9009402 -12.3125 34.3125 C-18.20170854 32.35316256 -21.77918635 29.3447952 -25.3125 24.3125 C-27.10043044 18.94870867 -27.00305197 13.42477662 -25.25 8.0625 C-19.08433728 -0.68876322 -10.2117733 -4.7425464 0 0 Z " fill="#FBFCFD" transform="translate(447.3125,438.6875)"/>
<path d="M0 0 C24.26249247 3.32630945 24.26249247 3.32630945 31 9 C33.50552308 12.75828462 33.37195709 14.53651494 33 19 C31.49321564 23.52035309 30.27281131 26.66937565 26 29 C16.65417743 31.95569444 6.06978847 30.0180503 -3 27 C-3.33 26.67 -3.66 26.34 -4 26 C-3.93057238 17.21740567 -1.83386933 8.5465231 0 0 Z " fill="#FDC528" transform="translate(723,550)"/>
<path d="M0 0 C7.09352814 0.09185864 14.78397646 1.53788272 20.6875 5.66796875 C23.10615237 8.23091572 23.75664535 10.35901748 24.25 13.8125 C23.57722872 18.52189898 22.32209726 21.84182837 18.8125 25.125 C11.87206029 29.12101074 2.35702788 27.10820019 -5.0625 25.25 C-6.6403125 24.7859375 -6.6403125 24.7859375 -8.25 24.3125 C-8.41068744 18.98885518 -7.84522557 14.15396495 -6.8125 8.9375 C-6.67779297 8.21433594 -6.54308594 7.49117187 -6.40429688 6.74609375 C-5.13724649 0.15743175 -5.13724649 0.15743175 0 0 Z " fill="#FDC528" transform="translate(734.25,513.6875)"/>
<path d="M0 0 C0.18451025 16.8929385 0.18451025 16.8929385 -1 24 C-7.6054541 27.14813132 -13.62635308 29.29451288 -21 28 C-24.10401881 26.65261658 -26.44751655 25.10496689 -28 22 C-28.37163682 17.54035816 -28.40216659 14.93229527 -26.625 10.8125 C-20.36328004 4.10351433 -9.18385332 0 0 0 Z " fill="#1851AE" transform="translate(114,561)"/>
<path d="M0 0 C6.6 0 13.2 0 20 0 C20 34.65 20 69.3 20 105 C13.4 105 6.8 105 0 105 C0 70.35 0 35.7 0 0 Z M2 1 C2 34.66 2 68.32 2 103 C7.28 103 12.56 103 18 103 C18.13274916 94.13052044 18.26351574 85.26101698 18.39115143 76.39146233 C18.45054297 72.26925779 18.51067625 68.14706737 18.57275391 64.02490234 C18.88852128 43.01452261 19.07061196 22.01294291 19 1 C13.39 1 7.78 1 2 1 Z " fill="#F4CE20" transform="translate(336,510)"/>
<path d="M0 0 C2.92837797 2.45027545 4.56680768 4.19920878 5.47265625 7.96484375 C5.76995587 11.93646173 5.05277801 13.90636159 3.0625 17.4375 C-0.39177222 20.32780941 -2.36924321 21.02848135 -6.78125 21.234375 C-10.39730218 20.85239766 -12.37405648 19.43380131 -15 17 C-16.91303463 13.9225095 -17.00253398 12.14190292 -16.9375 8.5 C-15.82276962 4.33833993 -14.28026327 2.72021832 -11 0 C-7.45804654 -1.77097673 -3.72833681 -1.02850671 0 0 Z " fill="#FAC527" transform="translate(209,630)"/>
<path d="M0 0 C2.66578892 2.18110003 3.55806523 3.13961783 4.75 6.25 C4.97213813 10.45581532 4.42253041 14.12911598 2.25 17.75 C-1.46642108 19.97985265 -4.93474076 20.57158778 -9.25 20.25 C-12.521075 18.64419955 -14.47728507 17.30370218 -16.625 14.375 C-17.94601084 9.88356315 -17.73383625 7.14855304 -15.5 3 C-11.07554167 -2.40767129 -6.28755102 -3.38560439 0 0 Z " fill="#FAC726" transform="translate(596.25,630.75)"/>
<path d="M0 0 C2.82424288 2.19022918 4.41508603 3.83017207 6 7 C6.67660495 12.86390959 6.67660495 12.86390959 4.953125 15.7578125 C3.16405507 17.93626824 1.54084375 19.72957812 -1 21 C-8.0505676 21.57791538 -8.0505676 21.57791538 -11.875 19.25 C-14.81923695 16.13257264 -15.85734167 14.34098834 -16.3125 10.0625 C-15.95575962 6.56644429 -15.09609412 4.79479215 -13 2 C-8.7741215 -0.81725233 -4.96375312 -0.79958384 0 0 Z " fill="#FAC725" transform="translate(125,502)"/>
<path d="M0 0 C3.20296967 2.66914139 4.61081414 4.18486268 5.4765625 8.22265625 C5.75606335 12.62847235 5.43090351 14.45570083 2.625 18 C-1.02250125 20.77904857 -3.31059972 21.39319564 -7.9609375 21.359375 C-11.38006698 20.7567698 -12.93189052 18.63213933 -15 16 C-16.60306924 12.79386153 -16.48740461 9.47860003 -16 6 C-12.07142072 -0.45409453 -7.32709416 -2.43752836 0 0 Z " fill="#FAC626" transform="translate(98,502)"/>
<path d="M0 0 C0.33 0 0.66 0 1 0 C1.72399636 6.82625139 2.07204259 13.5780697 2.03125 20.4375 C2.02899414 21.16904297 2.02673828 21.90058594 2.02441406 22.65429688 C2.01859083 24.43620698 2.00962608 26.21810638 2 28 C8.47799721 27.88232171 14.95582828 27.75749178 21.43359375 27.62768555 C23.637338 27.5843699 25.84111508 27.54269241 28.04492188 27.50268555 C31.21234024 27.44490156 34.37959386 27.38123024 37.546875 27.31640625 C38.53242371 27.29969376 39.51797241 27.28298126 40.53338623 27.26576233 C41.4540387 27.24581711 42.37469116 27.22587189 43.32324219 27.20532227 C44.53569611 27.18200584 44.53569611 27.18200584 45.77264404 27.15821838 C47.95806731 27.00297865 49.89708581 26.59991191 52 26 C49.52461352 28.71113757 47.67771201 29.90425119 43.89289856 30.12025452 C43.08237534 30.11803391 42.27185211 30.11581329 41.43676758 30.11352539 C40.51603958 30.11344986 39.59531158 30.11337433 38.64668274 30.11329651 C37.65597275 30.10813522 36.66526276 30.10297394 35.64453125 30.09765625 C34.62775803 30.0962413 33.6109848 30.09482635 32.56340027 30.09336853 C29.31307036 30.08776707 26.06280912 30.07521432 22.8125 30.0625 C20.61002704 30.05748519 18.40755299 30.05292225 16.20507812 30.04882812 C10.80333762 30.03864769 5.40174575 30.01907246 0 30 C0 20.1 0 10.2 0 0 Z " fill="#0842A1" transform="translate(186,352)"/>
<path d="M0 0 C3.65316671 1.24976756 4.78065836 1.67098753 7 5 C6.01 5.33 5.02 5.66 4 6 C3.01 5.34 2.02 4.68 1 4 C0.15630859 4.46043701 -0.68738281 4.92087402 -1.55664062 5.39526367 C-13.88894212 11.14258484 -28.21615315 10.38353969 -41.5 10.1875 C-43.30597824 10.17240419 -45.1119689 10.15872457 -46.91796875 10.14648438 C-51.27896088 10.1139164 -55.63933714 10.06241407 -60 10 C-60.33 9.34 -60.66 8.68 -61 8 C-60.44591461 7.99413376 -59.89182922 7.98826752 -59.32095337 7.98222351 C-53.51231095 7.91789281 -47.70420242 7.83337504 -41.89599609 7.73754883 C-39.73330765 7.70445798 -37.57053612 7.67637764 -35.40771484 7.65356445 C-32.28447326 7.61972574 -29.16198223 7.56739649 -26.0390625 7.51171875 C-25.08448151 7.50532883 -24.12990051 7.4989389 -23.14639282 7.49235535 C-14.62230375 7.30899596 -6.35068875 6.13899913 0 0 Z " fill="#0F47B7" transform="translate(434,607)"/>
<path d="M0 0 C0.33 0.66 0.66 1.32 1 2 C4.02934491 2.65772428 4.02934491 2.65772428 7 3 C4.86197902 5.32509781 2.81401863 6.82167236 0 8.25 C-1.0209375 8.78367187 -1.0209375 8.78367187 -2.0625 9.328125 C-4 10 -4 10 -7 9 C-6.34 8.34 -5.68 7.68 -5 7 C-3.23221779 4.71661465 -1.60324256 2.40486384 0 0 Z " fill="#134BB4" transform="translate(217,579)"/>
<path d="M0 0 C1.6875 1.515625 1.6875 1.515625 3 3 C0.75083381 3.81487171 -1.49926978 4.62696918 -3.75 5.4375 C-4.70132813 5.78264648 -4.70132813 5.78264648 -5.671875 6.13476562 C-8.75412076 7.24244769 -11.79836438 8.29661036 -15 9 C-13.06745228 6.9754262 -11.36841312 5.57894208 -9 4 C-9 3.01 -9 2.02 -9 1 C-5.72429875 -0.09190042 -3.43202271 -0.28600189 0 0 Z " fill="#1149B5" transform="translate(97,542)"/>
<path d="M0 0 C0.99 0.5259375 0.99 0.5259375 2 1.0625 C5.09846402 2.51490501 7.73098463 1.6286568 11 1 C11.33 1.66 11.66 2.32 12 3 C11.67 3.99 11.34 4.98 11 6 C9.68 5.34 8.36 4.68 7 4 C7.33 4.70125 7.66 5.4025 8 6.125 C9.09044562 9.26003116 9.15322643 11.70563182 9 15 C8.67 15 8.34 15 8 15 C7.81824219 14.38511719 7.63648437 13.77023437 7.44921875 13.13671875 C7.19785156 12.32847656 6.94648437 11.52023437 6.6875 10.6875 C6.44386719 9.88699219 6.20023438 9.08648437 5.94921875 8.26171875 C4.92678367 5.82554627 4.09953107 4.59085609 2 3 C0.05951944 2.46499208 0.05951944 2.46499208 -2 2.375 C-4.62441198 2.16623996 -6.45191975 1.84936008 -9 1 C-5.97562661 -0.5121867 -3.33758466 -0.17263369 0 0 Z " fill="#1347BA" transform="translate(96,500)"/>
<path d="M0 0 C0.66 0.33 1.32 0.66 2 1 C1.67 1.33 1.34 1.66 1 2 C0.49605461 8.36543108 0.49605461 8.36543108 3 14 C5.64787088 14.70373017 5.64787088 14.70373017 8.625 14.75 C10.12933594 14.83507812 10.12933594 14.83507812 11.6640625 14.921875 C12.43492187 14.94765625 13.20578125 14.9734375 14 15 C12 17 12 17 9.25 17.375 C5.14445579 16.90128336 3.14808997 15.64725748 0 13 C-2.55343462 8.89230084 -1.97810892 5.62378763 -1 1 C-0.67 0.67 -0.34 0.34 0 0 Z " fill="#EBCD21" transform="translate(194,634)"/>
<path d="M0 0 C6.625 -0.25 6.625 -0.25 10 2 C10.22107787 4.7885289 10.28107535 7.34653181 10.1875 10.125 C10.17396484 10.87910156 10.16042969 11.63320313 10.14648438 12.41015625 C10.11109985 14.27374127 10.05729167 16.13695978 10 18 C9.67 18 9.34 18 9 18 C8.67 13.38 8.34 8.76 8 4 C5.36 3.67 2.72 3.34 0 3 C0 2.01 0 1.02 0 0 Z " fill="#F2BD2E" transform="translate(122,539)"/>
<path d="M0 0 C1.47919922 0.06960938 1.47919922 0.06960938 2.98828125 0.140625 C3.98214844 0.17671875 4.97601562 0.2128125 6 0.25 C7.13888672 0.31960938 7.13888672 0.31960938 8.30078125 0.390625 C5.05886581 2.93385177 2.33661749 4.38166594 -1.69921875 5.390625 C-4.07421875 5.015625 -4.07421875 5.015625 -5.69921875 4.390625 C-4.03190196 1.4998505 -3.38689549 0.49014407 0 0 Z " fill="#F5CD20" transform="translate(769.69921875,644.609375)"/>
<path d="M0 0 C1.07174763 3.65188082 0.76411467 6.26432828 0 10 C-0.66 10 -1.32 10 -2 10 C-2.268125 10.928125 -2.53625 11.85625 -2.8125 12.8125 C-3.91148371 15.76240366 -4.62418561 17.05615186 -7 19 C-5.58632741 14.65328707 -4.02739359 10.3864361 -2.375 6.125 C-1.92898437 4.97257812 -1.48296875 3.82015625 -1.0234375 2.6328125 C-0.68570313 1.76398438 -0.34796875 0.89515625 0 0 Z " fill="#12409F" transform="translate(183,421)"/>
<path d="M0 0 C3.63 0 7.26 0 11 0 C11.33 0.99 11.66 1.98 12 3 C7.71 3 3.42 3 -1 3 C-0.67 2.01 -0.34 1.02 0 0 Z " fill="#215AAD" transform="translate(121,331)"/>
<path d="M0 0 C0.99 0.33 1.98 0.66 3 1 C4.1577506 4.47325181 4.06866652 7.36067448 4 11 C1.6870518 8.6870518 1.50419025 7.52095125 0.875 4.375 C0.70742188 3.55773437 0.53984375 2.74046875 0.3671875 1.8984375 C0.24601563 1.27195312 0.12484375 0.64546875 0 0 Z " fill="#0E47B8" transform="translate(835,509)"/>
<path d="M0 0 C0.33 0.66 0.66 1.32 1 2 C0.38125 2.53625 -0.2375 3.0725 -0.875 3.625 C-3.2782902 6.31103023 -4.06022153 8.55414562 -5 12 C-5.33 12 -5.66 12 -6 12 C-6.35671933 8.16526716 -6.29771416 6.44657125 -4.125 3.1875 C-2 1 -2 1 0 0 Z " fill="#F6D219" transform="translate(88,502)"/>
<path d="M0 0 C3.59930552 2.62652025 6.07666989 4.93963643 8 9 C7.67 9.66 7.34 10.32 7 11 C3.54872227 7.87741538 1.46763996 4.40291987 0 0 Z " fill="#0F43BD" transform="translate(414,572)"/>
<path d="M0 0 C1.32 0 2.64 0 4 0 C3.35455571 3.48539917 1.89865603 6.02819057 0 9 C-1.53445094 5.93109813 -0.54984289 3.29905734 0 0 Z " fill="#1347B6" transform="translate(636,493)"/>
<path d="M0 0 C2.64 0 5.28 0 8 0 C7.34 1.65 6.68 3.3 6 5 C5.67 4.34 5.34 3.68 5 3 C3.35 3 1.7 3 0 3 C0 2.01 0 1.02 0 0 Z " fill="#2D63B3" transform="translate(141,415)"/>
<path d="M0 0 C0.33 0.99 0.66 1.98 1 3 C-1.31 4.98 -3.62 6.96 -6 9 C-6.66 8.67 -7.32 8.34 -8 8 C-5.36 5.36 -2.72 2.72 0 0 Z " fill="#07379B" transform="translate(171,446)"/>
<path d="M0 0 C2.4375 0.375 2.4375 0.375 5 1 C5.33 1.66 5.66 2.32 6 3 C3.69 3.33 1.38 3.66 -1 4 C-0.67 2.68 -0.34 1.36 0 0 Z " fill="#FDCE1C" transform="translate(217,551)"/>
<path d="M0 0 C-0.33 0.99 -0.66 1.98 -1 3 C-3.31 3 -5.62 3 -8 3 C-8 2.34 -8 1.68 -8 1 C-5.07175348 0.02391783 -3.04386724 -0.08226668 0 0 Z " fill="#2357AC" transform="translate(110,436)"/>
<path d="M0 0 C1.65 0 3.3 0 5 0 C5.33 1.32 5.66 2.64 6 4 C5.01 4.495 5.01 4.495 4 5 C3.34 4.01 2.68 3.02 2 2 C1.01 2.33 0.02 2.66 -1 3 C-0.67 2.01 -0.34 1.02 0 0 Z " fill="#EEBF2E" transform="translate(113,599)"/>
<path d="M0 0 C1.4800841 0.11362262 2.95910074 0.24122908 4.4375 0.375 C5.26121094 0.44460938 6.08492188 0.51421875 6.93359375 0.5859375 C7.95646484 0.79089844 7.95646484 0.79089844 9 1 C9.33 1.66 9.66 2.32 10 3 C6.66666667 3 3.33333333 3 0 3 C0 2.01 0 1.02 0 0 Z " fill="#F7C02C" transform="translate(115,502)"/>
<path d="M0 0 C1.32 0.66 2.64 1.32 4 2 C2.35 3.98 0.7 5.96 -1 8 C-1.66 7.67 -2.32 7.34 -3 7 C-2.2575 6.38125 -2.2575 6.38125 -1.5 5.75 C0.43386092 3.87797662 0.43386092 3.87797662 0 0 Z " fill="#0C43B9" transform="translate(660,463)"/>
</svg>
